# xmcd
#
# Track frame offsets:
#	300
#	11970
#	27607
#	44491
#	55876
#	72154
#	87535
#	106277
#	123754
#	137851
#	161971
#	176273
#	189222
#	203034
#	219874
#	233534
#	249302
#	265285
#	279793
#	294541
#
# Disc length: 4084 seconds
#
# Revision: 0
# Processed by: cddbd v1.5.2PL0 Copyright (c) Steve Scherf et al.
# Submitted via: audiograbber 1.83.01
#
DISCID=200ff014
DTITLE=Verschiedene - Die Randfichten CD 1/2
DYEAR=1900
DGENRE=
TTITLE0=Die Randfichten - Die lustigen Holzhackerleit
TTITLE1=Die Randfichten - Lebt denn der alte Holzmichel noch
TTITLE2=Die Ladiner - Beuge Dich vor grauem Haar
TTITLE3=Toni - I bie e kloane Flugficht
TTITLE4=Hansi Hinterseer - Männer aus den Bergen
TTITLE5=Kastelruther Spatzen - Berg ohne Wiederkehr
TTITLE6=Andrea Berg - Partimix
TTITLE7=Stefanie Hertel - Erst Du, dann Du
TTITLE8=Die Flippers - Wetten Das
TTITLE9=Die Randfichten - Hejo, Heja Ho
TTITLE10=Judith and Mel, Andy Borg - Gemeinsam
TTITLE11=Vreni and Rudi - Gemeinsam
TTITLE12=Florian Silbereisen - I bleib bei Volksmusik
TTITLE13=Monika Martin - Eine Liebe Reicht für Zwei
TTITLE14=Roger Whittaker - Du warst mein schönster Traum
TTITLE15=Franz Bauer - Schau in meine Augen
TTITLE16=Andrea Jürgens - Komm lass uns reden
TTITLE17=Gaby Albrecht - Das Salz im Meer
TTITLE18=G.G. Anderson - Goodbye Maria
TTITLE19=Die Randfichten - 20
EXTD=
EXTT0=
EXTT1=
EXTT2=
EXTT3=
EXTT4=
EXTT5=
EXTT6=
EXTT7=
EXTT8=
EXTT9=
EXTT10=
EXTT11=
EXTT12=
EXTT13=
EXTT14=
EXTT15=
EXTT16=
EXTT17=
EXTT18=
EXTT19=
PLAYORDER=
